<?xml version="1.0" encoding="UTF-8"?>
<svg width="350.56" height="220.99" version="1.1" viewBox="0 0 350.56 220.99" xml:space="preserve" xmlns="http://www.w3.org/2000/svg">
<style type="text/css">
	.st0{fill:#F2F2F2;}
	.st1{fill:#F5DA8D;}
	.st2{fill:none;stroke:#3D0938;stroke-width:4;stroke-linecap:round;stroke-linejoin:round;stroke-miterlimit:10;}
	.st3{fill:#E38980;}
	.st4{fill:#CC5F7E;}
	.st5{fill:#36C2E3;}
	.st6{fill:#6D4F8D;}
	.st7{fill:none;stroke:#3D0938;stroke-width:6;stroke-linecap:round;stroke-linejoin:round;stroke-miterlimit:10;}
	.st8{fill:#FFFFFF;}
	.st9{fill:#CCFFFF;}
	.st10{opacity:0.43;fill:#3D0938;}
	.st11{fill:#F0406F;}
	.st12{fill:#D4907F;}
	.st13{fill:none;stroke:#3D0938;stroke-width:5;stroke-linecap:round;stroke-linejoin:round;stroke-miterlimit:10;}
	.st14{fill:#DB2C62;}
	.st15{fill:#F96291;}
	.st16{fill:#F1CB9C;}
	.st17{fill:#F8E4C1;}
	.st18{fill:#EFAB89;}
	.st19{fill:none;stroke:#3D0938;stroke-width:3;stroke-linecap:round;stroke-linejoin:round;stroke-miterlimit:10;}
	.st20{fill:none;stroke:#3D0938;stroke-width:2;stroke-linecap:round;stroke-linejoin:round;stroke-miterlimit:10;}
	.st21{fill:#21E8A6;}
</style>


<line id="XMLID_11_" class="st7" x1="205.14" x2="234.54" y1="75.445" y2="75.445"/>
<line id="XMLID_12_" class="st7" x1="227.64" x2="256.94" y1="75.445" y2="75.445"/>





<path id="XMLID_13_" class="st8" d="m348.54 133.14c-0.7-20.2-17.6-36-37.8-35.3-1.9 0.1-3.8 0.3-5.7 0.6-8.2-21.8-29.5-36.9-54.1-36.1-5.3 0.2-10.3 1.1-15.1 2.6-7.7-37-41.2-64.2-80.2-62.9-27.4 0.9-51.1 15.6-64.6 37.3-7-2.1-14.4-3.1-22-2.8-38.3 1.3-68.3 33.4-67 71.7 1.3 38.3 33.4 68.3 71.7 67 2.3-0.1 4.6-0.3 6.9-0.6 13.3 27.2 41.7 45.4 73.9 44.3 33.2-1.1 61-22.5 71.8-52 8.4 4.6 18.2 7.1 28.5 6.7 12.4-0.4 23.8-4.9 32.8-12.1 6.8 6 15.8 9.6 25.6 9.3 20.1-0.6 35.9-17.5 35.3-37.7z"/>
<path id="XMLID_28_" class="st9" d="m346.74 123.24c-4.6 14.3-17.7 24.8-33.6 25.4-9.8 0.3-18.8-3.2-25.6-9.3-9 7.2-20.4 11.7-32.8 12.1-10.3 0.3-20.1-2.1-28.5-6.7-10.8 29.4-38.5 50.8-71.8 52-32.2 1.1-60.5-17.2-73.9-44.3-2.3 0.3-4.6 0.5-6.9 0.6-35.3 1.2-65.3-24.2-70.8-58.2-0.7 4.4-1 8.9-0.9 13.6 1.3 38.3 33.4 68.3 71.7 67 2.3-0.1 4.6-0.3 6.9-0.6 13.3 27.2 41.7 45.4 73.9 44.3 33.2-1.1 61-22.5 71.8-52 8.4 4.6 18.2 7.1 28.5 6.7 12.4-0.4 23.8-4.9 32.8-12.1 6.8 6 15.8 9.6 25.6 9.3 20.2-0.7 36-17.6 35.3-37.8 0-3.5-0.7-6.9-1.7-10z"/>
<path id="XMLID_96_" class="st2" d="m348.54 133.14c-0.7-20.2-17.6-36-37.8-35.3-1.9 0.1-3.8 0.3-5.7 0.6-8.2-21.8-29.5-36.9-54.1-36.1-5.3 0.2-10.3 1.1-15.1 2.6-7.7-37-41.2-64.2-80.2-62.9-27.4 0.9-51.1 15.6-64.6 37.3-7-2.1-14.4-3.1-22-2.8-38.3 1.3-68.3 33.4-67 71.7 1.3 38.3 33.4 68.3 71.7 67 2.3-0.1 4.6-0.3 6.9-0.6 13.3 27.2 41.7 45.4 73.9 44.3 33.2-1.1 61-22.5 71.8-52 8.4 4.6 18.2 7.1 28.5 6.7 12.4-0.4 23.8-4.9 32.8-12.1 6.8 6 15.8 9.6 25.6 9.3 20.1-0.6 35.9-17.5 35.3-37.7z"/>













</svg>
