<?xml version="1.0" encoding="UTF-8"?>
<svg width="66.667" height="66.667" version="1.1" viewBox="0 0 66.667 66.667" xmlns="http://www.w3.org/2000/svg">
 <path d="m0 56c0-10.667 0-10.667 15.333-10.667 15.333 0 15.333 0 15.333 10.667s0 10.667-15.333 10.667c-15.333 0-15.333 0-15.333-10.667zm36-8.6667c0-19.333 0-19.333 15.333-19.333 15.333 0 15.333 0 15.333 19.333 0 19.333 0 19.333-15.333 19.333-15.333 0-15.333 0-15.333-19.333zm-36-28c0-19.333 0-19.333 15.333-19.333 15.333 0 15.333 0 15.333 19.333 0 19.333 0 19.333-15.333 19.333-15.333 0-15.333 0-15.333-19.333zm36-8.6667c0-10.667 0-10.667 15.333-10.667 15.333 0 15.333 0 15.333 10.667s0 10.667-15.333 10.667c-15.333 0-15.333 0-15.333-10.667z" stroke-width="1.3333"/>
</svg>
