<?xml version="1.0" encoding="UTF-8"?>
<svg width="74.921" height="17.812" version="1.1" viewBox="0 0 74.921 17.812" xmlns="http://www.w3.org/2000/svg">
 <g transform="translate(-.069868 .27298)">
  <path d="m2.0952 15.238c-2.7005-2.7005-2.7005-10.442 0-13.143 5.3711-5.3711 15.238-0.96602 15.238 6.8031 0 7.3309-10.061 11.517-15.238 6.3398zm27.98-0.8681c-4.7381-6.7646-0.89696-14.37 7.2577-14.37 3.8436 0 5.7183 0.76544 7.2577 2.9633 4.7381 6.7646 0.89696 14.37-7.2577 14.37-3.8436 0-5.7183-0.76544-7.2577-2.9633zm29.464 0.52502c-5.2842-5.839-1.148-14.895 6.8031-14.895 7.4893 0 11.545 9.9217 6.2283 15.238-2.8664 2.8664-10.304 2.6706-13.031-0.34308z" stroke-width="1.3333"/>
 </g>
</svg>
