<?xml version="1.0" encoding="UTF-8"?>
<svg width="7.1323" height="30" version="1.1" viewBox="0 0 7.1323 30" xmlns="http://www.w3.org/2000/svg">
 <g transform="matrix(.40042 0 0 .40042 -11.462 11.543)">
  <path d="m44.136 44.068c-2.7005 2.7005-10.442 2.7005-13.143 0-5.3711-5.3711-0.96602-15.238 6.8031-15.238 7.3309 0 11.517 10.061 6.3398 15.238zm-0.8681-27.98c-6.7646 4.7381-14.37 0.89696-14.37-7.2577 0-3.8436 0.76544-5.7183 2.9633-7.2577 6.7646-4.7381 14.37-0.89696 14.37 7.2577 0 3.8436-0.76544 5.7183-2.9633 7.2577zm0.52502-29.464c-5.839 5.2842-14.895 1.148-14.895-6.8031 0-7.4893 9.9217-11.545 15.238-6.2283 2.8664 2.8664 2.6706 10.304-0.34308 13.031z" stroke-width="1.3333"/>
 </g>
</svg>
