<?xml version="1.0" encoding="UTF-8" standalone="no"?>
<!-- Generator: Adobe Illustrator 23.1.1, SVG Export Plug-In . SVG Version: 6.00 Build 0)  -->

<svg
   version="1.1"
   id="Layer_1"
   x="0px"
   y="0px"
   viewBox="0 0 438.45517 449.44402"
   xml:space="preserve"
   sodipodi:docname="cloudiconink.svg"
   width="438.45517"
   height="449.44403"
   inkscape:version="1.2.1 (9c6d41e410, 2022-07-14)"
   xmlns:inkscape="http://www.inkscape.org/namespaces/inkscape"
   xmlns:sodipodi="http://sodipodi.sourceforge.net/DTD/sodipodi-0.dtd"
   xmlns="http://www.w3.org/2000/svg"
   xmlns:svg="http://www.w3.org/2000/svg"><defs
   id="defs298"><filter
     inkscape:collect="always"
     style="color-interpolation-filters:sRGB"
     id="filter1140"
     x="-0.045581989"
     y="-0.1008047"
     width="1.091164"
     height="1.2016094"><feGaussianBlur
       inkscape:collect="always"
       stdDeviation="4.5278109"
       id="feGaussianBlur1142" /></filter></defs><sodipodi:namedview
   id="namedview296"
   pagecolor="#ffffff"
   bordercolor="#000000"
   borderopacity="0.25"
   inkscape:showpageshadow="2"
   inkscape:pageopacity="0"
   inkscape:pagecheckerboard="0"
   inkscape:deskcolor="#d1d1d1"
   showgrid="false"
   inkscape:zoom="2.2740554"
   inkscape:cx="8.1352459"
   inkscape:cy="97.842823"
   inkscape:window-width="1920"
   inkscape:window-height="991"
   inkscape:window-x="-9"
   inkscape:window-y="-9"
   inkscape:window-maximized="1"
   inkscape:current-layer="Layer_1" />
<style
   type="text/css"
   id="style2">
	.st0{fill:#F2F2F2;}
	.st1{fill:#F5DA8D;}
	.st2{fill:none;stroke:#3D0938;stroke-width:4;stroke-linecap:round;stroke-linejoin:round;stroke-miterlimit:10;}
	.st3{fill:#E38980;}
	.st4{fill:#CC5F7E;}
	.st5{fill:#36C2E3;}
	.st6{fill:#6D4F8D;}
	.st7{fill:none;stroke:#3D0938;stroke-width:6;stroke-linecap:round;stroke-linejoin:round;stroke-miterlimit:10;}
	.st8{fill:#FFFFFF;}
	.st9{fill:#CCFFFF;}
	.st10{opacity:0.43;fill:#3D0938;}
	.st11{fill:#F0406F;}
	.st12{fill:#D4907F;}
	.st13{fill:none;stroke:#3D0938;stroke-width:5;stroke-linecap:round;stroke-linejoin:round;stroke-miterlimit:10;}
	.st14{fill:#DB2C62;}
	.st15{fill:#F96291;}
	.st16{fill:#F1CB9C;}
	.st17{fill:#F8E4C1;}
	.st18{fill:#EFAB89;}
	.st19{fill:none;stroke:#3D0938;stroke-width:3;stroke-linecap:round;stroke-linejoin:round;stroke-miterlimit:10;}
	.st20{fill:none;stroke:#3D0938;stroke-width:2;stroke-linecap:round;stroke-linejoin:round;stroke-miterlimit:10;}
	.st21{fill:#21E8A6;}
</style>







<path
   id="XMLID_16_"
   class="st2"
   d="m 381.52746,118.21179 c -13.88204,0 -26.53402,8.26923 -35.49585,21.80067 C 340.58423,63.584833 295.24795,4.1968007 240.24695,4.1968007 c -45.33627,0 -84.17085,40.5943513 -99.28294,97.7271393 -10.89477,-5.512812 -22.66814,-8.519802 -35.14441,-8.519802 -52.189455,0 -94.538462,53.374052 -94.538462,119.277232 0,61.64326 37.077346,112.51149 84.698014,118.77607 11.773398,56.13044 48.323578,97.22597 91.551188,97.22597 39.8889,0 73.97897,-34.83096 88.38818,-84.1957 11.24621,14.2832 25.83114,22.803 41.99756,22.803 34.96869,0 63.25993,-40.34377 63.25993,-90.20966 0,-6.51515 -0.52716,-12.52912 -1.40576,-18.54311 0.52716,0 0.8786,0 1.40576,0 27.0612,0 49.02646,-31.32279 49.02646,-69.91249 0.35145,-39.09085 -21.61381,-70.41366 -48.67501,-70.41366 z"
   style="display:inline;fill:#f9f9f9;stroke:#1a1a1a"
   inkscape:label="XMLID_16_" /><path
   id="XMLID_29_"
   class="st9"
   d="m 212.7,79.4 c -0.3,0 -0.5,0 -0.8,0 0.5,2.4 0.8,4.9 0.8,7.4 0,19.9 -16.1,36 -36,36 -9.2,0 -17.6,-3.4 -23.9,-9.1 -8.2,19.7 -27.6,33.6 -50.3,33.6 -24.6,0 -45.4,-16.4 -52.1,-38.8 C 27.9,106.4 9.5,92.1 3.9,73.1 2.8,76.9 2.2,81 2.2,85.1 c 0,24.6 21.1,44.9 48.2,47.4 6.7,22.4 27.5,38.8 52.1,38.8 22.7,0 42.1,-13.9 50.3,-33.6 6.4,5.7 14.7,9.1 23.9,9.1 19.9,0 36,-16.1 36,-36 0,-2.6 -0.3,-5 -0.8,-7.4 0.3,0 0.5,0 0.8,0 15.4,0 27.9,-12.5 27.9,-27.9 0,-4.3 -1,-8.4 -2.7,-12 -4.5,9.4 -14.1,15.9 -25.2,15.9 z"
   style="display:inline;filter:url(#filter1140)"
   inkscape:label="XMLID_29_"
   transform="matrix(1.6855006,0,0,2.275376,14.607806,34.946227)" />
















</svg>
