<?xml version="1.0" encoding="UTF-8"?>
<svg width="61.333" height="69.333" version="1.1" viewBox="0 0 61.333 69.333" xmlns="http://www.w3.org/2000/svg">
 <path d="m17.333 67.208c-9.2317-3.9987-17.333-14.821-17.333-23.154 0-3.9043 0.21654-4.0531 5.8966-4.0531 5.5461 0 5.9873 0.27478 7.4223 4.623 3.0343 9.1941 13.776 14.536 23.065 11.47 8.267-2.7284 13.51-11.226 11.953-19.372-0.88594-4.6345-8.313-12.151-12.866-13.022-3.3094-0.63264-3.4706-0.39346-3.4706 5.1517 0 3.7602-0.58897 5.8171-1.6667 5.8208-0.91667 0.0032-6.6167-3.353-12.667-7.458-14.26-9.6757-14.3-10.937-0.641-20.219 12.756-8.6682 14.974-8.9144 14.974-1.6622 0 4.818 0.3262 5.3333 3.3762 5.3333 8.0449 0 18.977 7.545 23.349 16.115 3.4937 6.8482 3.5244 19.544 0.06364 26.272-3.2734 6.3637-8.8284 11.598-15.079 14.209-6.2778 2.6224-20.262 2.5932-26.376-0.05501z" stroke-width="1.3333"/>
</svg>
