<?xml version="1.0" encoding="UTF-8"?>
<svg width="72" height="66.667" version="1.1" viewBox="0 0 72 66.667" xmlns="http://www.w3.org/2000/svg">
 <path d="m1.6 65.067c-0.88-0.88-1.6-3.88-1.6-6.6667v-5.0667h47.449l1.2757 4.3306c0.79102 2.6852 2.2889 4.5171 3.9424 4.8216 2.5081 0.46188 2.5352 0.34315 0.4549-1.9972-1.2165-1.3686-2.4165-3.9883-2.6667-5.8216l-0.4549-3.3333-42-0.73438v-22.72c0-13.112 0.5837-23.811 1.3802-25.299 1.2946-2.4189 3.0495-2.579 28.267-2.579 20.912 0 26.531 0.35556 25.286 1.6-1.1456 1.1456-1.6 9.7711-1.6 30.37 0 23.881-0.3527 29.274-2.0756 31.733-2.0286 2.8963-2.6864 2.9633-29.067 2.9633-19.215 0-27.452-0.46094-28.591-1.6zm34.4-26.4c0-0.75214-3.7778-1.3333-8.6667-1.3333-4.8889 0-8.6667 0.5812-8.6667 1.3333s3.7778 1.3333 8.6667 1.3333c4.8889 0 8.6667-0.5812 8.6667-1.3333zm14.667-13.333c0-0.81481-6.2222-1.3333-16-1.3333-9.7778 0-16 0.51852-16 1.3333 0 0.81482 6.2222 1.3333 16 1.3333 9.7778 0 16-0.51852 16-1.3333zm-0.66667-13.333c-1.0625-1.7191-28.673-1.7191-31.333 0-1.349 0.87178 3.5593 1.2991 15.079 1.3129 11.051 0.013211 16.788-0.45015 16.255-1.3129zm14-3.2435c0-3.3989 0.68321-4.7937 2.6547-5.4194 3.8857-1.2333 5.3453 0.24349 5.3453 5.4082 0 4.2089-0.33053 4.588-4 4.588-3.6676 0-4-0.38035-4-4.5768z" stroke-width="1.3333"/>
</svg>
