<?xml version="1.0" encoding="UTF-8"?>
<svg width="68" height="68" version="1.1" viewBox="0 0 68 68" xmlns="http://www.w3.org/2000/svg">
 <path d="m51.331 58.664c-9.2645-9.3361-9.2645-9.3361-5.6336-12.967 3.6309-3.6309 3.6309-3.6309 12.967 5.6336 7.0935 7.0392 9.3361 10.154 9.3361 12.967 0 3.1588-0.54364 3.7024-3.7024 3.7024-2.8131 0-5.9278-2.2426-12.967-9.3361zm-36.664-10.825c-4.2593-1.6934-10.367-7.4767-12.786-12.106-1.0345-1.9802-1.8711-7.0802-1.859-11.333 0.042673-15.045 9.333-24.335 24.378-24.378 8.9875-0.025492 13.599 2.0131 19.337 8.5481 10.15 11.561 6.1255 31.311-7.8311 38.428-5.0052 2.5522-15.854 2.9819-21.239 0.8411zm17.377-9.8616c8.3515-4.3187 10.571-16.383 4.2897-23.315-6.4599-7.1285-16.549-7.5295-22.772-0.9053-12.282 13.073 2.5222 32.473 18.482 24.22z" stroke-width="1.3333"/>
</svg>
