<?xml version="1.0" encoding="UTF-8"?>
<svg width="68" height="69.333" version="1.1" viewBox="0 0 68 69.333" xmlns="http://www.w3.org/2000/svg">
 <path d="m24.943 68.499c-0.51892-0.51892-0.9435-2.9224-0.9435-5.341 0-6.343-3.9414-8.1907-10.838-5.0807-2.854 1.287-5.3952 2.0961-5.6471 1.798-2.1177-2.5062-7.5149-13.22-7.5149-14.917 0-1.1774 1.8-3.2041 4-4.5037 5.4576-3.2239 5.4576-8.3519 0-11.576-2.2-1.2996-4-3.2905-4-4.4243 0-2.5887 6.9604-15.118 8.3995-15.12 0.58642-7.456e-4 2.8351 0.91336 4.997 2.0313 3.5445 1.8329 4.2511 1.8228 7.1903-0.10303 2.0943-1.3722 3.4061-3.648 3.6697-6.366l0.41013-4.2303h18.667l0.41013 4.2303c0.26351 2.718 1.5754 4.9938 3.6697 6.366 2.9392 1.9258 3.6458 1.936 7.1903 0.10303 2.1619-1.118 4.4106-2.0321 4.997-2.0313 1.4391 0.0018296 8.3995 12.531 8.3995 15.12 0 1.1338-1.8 3.1247-4 4.4243-5.4576 3.2239-5.4576 8.3519 0 11.576 2.2 1.2996 4 3.3262 4 4.5037 0 1.6975-5.3971 12.411-7.5149 14.917-0.25188 0.29808-2.7931-0.51103-5.6471-1.798-6.9597-3.1384-10.517-1.3445-11.091 5.5934l-0.41358 4.996-8.7232 0.38794c-4.7977 0.21337-9.1477-0.03663-9.6667-0.55556zm16.492-27.063c2.3496-2.3496 3.8974-5.3027 3.8974-7.4359 0-4.6773-6.656-11.333-11.333-11.333s-11.333 6.656-11.333 11.333c0 2.1332 1.5479 5.0863 3.8974 7.4359s5.3027 3.8974 7.4359 3.8974 5.0863-1.5479 7.4359-3.8974z" stroke-width="1.3333"/>
</svg>
