<?xml version="1.0" encoding="UTF-8"?>
<svg width="68" height="68" version="1.1" viewBox="0 0 68 68" xmlns="http://www.w3.org/2000/svg">
 <path d="m32 58v-10h13.333v20h-13.333zm-32 0v-3.3333h28v6.6667h-28zm49.333 0c0-3.2381 0.26667-3.3333 9.3333-3.3333 9.0667 0 9.3333 0.09524 9.3333 3.3333 0 3.2381-0.26667 3.3333-9.3333 3.3333-9.0667 0-9.3333-0.09524-9.3333-3.3333zm-37.333-24v-10h13.333v20h-13.333zm-12 0c0-2.8148 0.62222-3.3333 4-3.3333 3.3778 0 4 0.51852 4 3.3333s-0.62222 3.3333-4 3.3333c-3.3778 0-4-0.51852-4-3.3333zm29.333 0v-3.3333h38.667v6.6667h-38.667zm13.333-24v-10h13.333v20h-13.333zm-42.667 0v-3.3333h38.667v6.6667h-38.667zm60 0c0-2.8148 0.62222-3.3333 4-3.3333s4 0.51852 4 3.3333c0 2.8148-0.62222 3.3333-4 3.3333s-4-0.51852-4-3.3333z" stroke-width="1.3333"/>
</svg>
