<?xml version="1.0" encoding="UTF-8"?>
<svg width="74.667" height="68" version="1.1" viewBox="0 0 74.667 68" xmlns="http://www.w3.org/2000/svg">
 <path d="m65.81 65.986c-1.268-3.3044 2.9512-6.9998 5.8816-5.1513 1.2696 0.80083 2.3083 2.5907 2.3083 3.9774 0 3.3644-6.9662 4.3629-8.1899 1.1739zm-35.143-3.5668c-7.0149-3.6077-8.1065-6.5312-3.3826-9.0594 1.8604-0.99568 3.3826-2.6525 3.3826-3.6818 0-1.3807-0.92125-1.1468-3.5131 0.89197-7.0748 5.5651-21.062 2.6747-25.131-5.1929-3.9182-7.5769-1.6093-20.571 4.2365-23.842 1.4746-0.82522 2.3592-3.2106 2.5472-6.8686 0.41615-8.0965 5.6959-13.333 13.443-13.333 5.9413 0 6.7408 0.99172 4.3703 5.421-1.835 3.4287 0.32289 3.2907 3.5038-0.22416 4.1094-4.5409 9.2718-6.5302 16.946-6.5302 12.584 0 20.938 7.954 21.998 20.945 0.3831 4.6966 1.6033 8.9678 3.1143 10.902 1.5406 1.9718 2.4844 5.3458 2.4844 8.8815 0 4.6983-0.70388 6.2939-4 9.0674-2.3677 1.9923-4 4.6523-4 6.5185 0 1.734-0.72 3.8727-1.6 4.7527-1.998 1.998-6.7242 2.0758-8.6575 0.14254-1.0544-1.0544-2.3505-0.87233-4.6866 0.65836-5.7969 3.7983-14.309 4.0213-21.056 0.55154z" stroke-width="1.3333"/>
</svg>
