<?xml version="1.0" encoding="UTF-8"?>
<svg width="64" height="72" version="1.1" viewBox="0 0 64 72" xmlns="http://www.w3.org/2000/svg">
 <path d="m9.4785 69c-0.6172-1.65-1.5543-12.45-2.0823-24l-0.96016-21h51.128l-0.96016 21c-0.52809 11.55-1.4651 22.35-2.0823 24-1.0997 2.9399-1.551 3-22.522 3s-21.422-0.060117-22.522-3zm-9.4785-53.4c0-3.1533 0.72-6.4533 1.6-7.3333s4.9837-1.6 9.1193-1.6c6.7267 0 7.6794-0.35136 9.0381-3.3333 1.4368-3.1535 2.0974-3.3333 12.247-3.3333 10.217 0 10.789 0.15897 11.996 3.3333 1.1516 3.029 1.9764 3.3333 9.0337 3.3333 4.2715 0 8.4863 0.72 9.3663 1.6s1.6 4.18 1.6 7.3333v5.7333h-64z" stroke-width="1.3333"/>
</svg>
