<?xml version="1.0" encoding="UTF-8"?>
<svg width="69.333" height="69.333" version="1.1" viewBox="0 0 69.333 69.333" xmlns="http://www.w3.org/2000/svg">
 <path d="m1.6 67.733c-2.2615-2.2615-2.2615-54.539 0-56.8 2.3342-2.3342 44.177-2.2699 43.404 0.066666-0.3927 1.1859-6.0169 1.859-19.497 2.3333-14.864 0.52305-19.216 1.0975-20.205 2.6667-0.69339 1.1-1.2699 11.707-1.2811 23.571-0.016896 17.852 0.34089 21.933 2.0748 23.667 1.7339 1.7339 5.8151 2.0917 23.667 2.0748 11.864-0.01123 22.471-0.58774 23.571-1.2811 1.5692-0.98913 2.1436-5.3418 2.6667-20.205 0.47435-13.48 1.1475-19.104 2.3333-19.497 2.3366-0.77376 2.4009 41.069 0.06667 43.404-2.2615 2.2615-54.539 2.2615-56.8 0zm19.733-21.8c0-4.4503 4.7751-11.11 16.443-22.934 6.6941-6.7833 12.828-12.333 13.632-12.333 1.7544 0 7.2588 5.646 7.2588 7.4456 0 2.1068-24.34 25.452-28.934 27.752-5.3866 2.6964-8.3995 2.7214-8.3995 0.06975zm35.333-33.934-3.8322-4 3.8322-4c5.7052-5.955 12.667-4.8463 12.667 2.0172 0 2.4199-6.1796 9.9828-8.1568 9.9828-0.37267 0-2.4021-1.8-4.5098-4z" stroke-width="1.3333"/>
</svg>
